<svg width="28" height="24" viewBox="0 0 28 24" fill="none" xmlns="http://www.w3.org/2000/svg">
<path d="M18.9083 0.410858L23.2162 7.87283L27.8084 7.87307V10.5563L26.2428 10.556L25.2277 22.742C25.1698 23.4374 24.5885 23.9723 23.8907 23.9723H4.8941C4.19635 23.9723 3.61507 23.4374 3.55713 22.742L2.54075 10.556L0.97644 10.5563V7.87307L5.56739 7.87283L9.87658 0.410858L12.2003 1.75246L8.66649 7.87283H20.1171L16.5846 1.75246L18.9083 0.410858ZM23.5502 10.556L5.23333 10.5563L6.12818 21.2891H22.6554L23.5502 10.556ZM15.7341 13.2395V18.6059H13.0509V13.2395H15.7341ZM10.3676 13.2395V18.6059H7.68444V13.2395H10.3676ZM21.1005 13.2395V18.6059H18.4173V13.2395H21.1005Z" fill="#FF9D23"/>
</svg>
